<?xml version="1.0" encoding="utf-8"?>
<svg width="500.00003px" height="500px" viewBox="0 0 500.00003 500" version="1.1" xmlns:xlink="http://www.w3.org/1999/xlink" xmlns="http://www.w3.org/2000/svg">
  <defs>
    <path d="M500 0L500 0L500 500L0 500L0 0L500 0Z" id="path_1" />
    <clipPath id="clip_1">
      <use xlink:href="#path_1" clip-rule="evenodd" fill-rule="evenodd" />
    </clipPath>
  </defs>
  <g id="aidock-logo-dark-no-slogen-round" clip-path="url(#clip_1)">
    <path d="M500 0L500 0L500 500L0 500L0 0L500 0Z" id="aidock-logo-dark-no-slogen-round" fill="none" stroke="none" />
    <path d="M-0.296387 250C-0.296387 111.929 111.632 0 249.704 0C387.775 0 499.704 111.929 499.704 250C499.704 388.071 387.775 500 249.704 500C111.632 500 -0.296387 388.071 -0.296387 250Z" id="Oval" fill="#000000" fill-rule="evenodd" stroke="none" />
    <g id="Group-51-Copy-4" transform="translate(81.329285 194.23657)">
      <g id="Group-8-Copy-2">
        <path d="M144.478 89.4385C144.478 95.3227 140.065 100.064 134.011 100.064L114.548 100.064L114.548 20.4359C114.548 16.0228 118.146 11.4399 123.544 11.4399L135.652 11.4399C141.049 11.4399 144.489 16.0115 144.489 20.4359L144.489 89.4385L144.478 89.4385ZM137.281 0L135.482 0C125.015 0 120.432 7.68331 116.506 7.68331C115.193 7.68331 114.548 6.86858 114.05 6.04254L111.923 2.28576C111.436 1.47103 110.124 0.486572 108.483 0.486572L106.197 0.486572C103.583 0.486572 102.44 2.77233 102.44 4.41309L102.44 111.018L137.938 111.018C149.547 111.018 156.586 102.35 156.586 93.8518L156.586 18.4784C156.586 5.72571 147.59 0 137.281 0" id="Shape" fill="#FFFFFF" fill-rule="evenodd" stroke="none" />
        <path d="M208.389 91.0343C208.389 96.1037 204.462 100.03 199.393 100.03L189.571 100.03C184.671 100.03 180.745 96.1036 180.745 91.0343L180.745 53.4324C180.745 48.5328 184.671 44.4365 189.74 44.4365L199.562 44.4365C204.462 44.4365 208.389 48.5215 208.389 53.4324L208.389 91.0343L208.389 91.0343ZM201.678 33.4829L187.443 33.4829C177.305 33.4829 168.637 41.4944 168.637 51.4634L168.637 92.6636C168.637 102.644 176.648 110.972 186.798 110.972L202.335 110.972C212.474 110.972 220.496 102.633 220.496 92.6636L220.496 51.4634C220.496 41.4944 211.829 33.4829 201.69 33.4829" id="Shape-2" fill="#FFFFFF" fill-rule="evenodd" stroke="none" />
        <path d="M273.001 100.03L255.665 100.03C249.611 100.03 244.7 97.5746 244.7 89.8913L244.7 55.0618C244.7 49.0079 247.642 44.4364 255.495 44.4364L271.202 44.4364C273.985 44.4364 276.113 42.6373 276.113 39.8649L276.113 38.0657C276.113 35.2821 273.985 33.4829 271.202 33.4829L251.252 33.4829C241.113 33.4829 232.604 41.6641 232.604 51.6332L232.604 92.3468C232.604 102.316 240.457 110.984 250.596 110.984L273.001 110.984C275.784 110.984 277.9 109.184 277.9 106.412L277.9 104.613C277.9 101.829 275.773 100.03 273.001 100.03" id="Shape-3" fill="#FFFFFF" fill-rule="evenodd" stroke="none" />
        <path d="M335.61 35.7685L334.297 34.4558C332.34 32.4982 329.556 32.4982 327.587 34.4558L297.986 64.0462L297.986 5.36337C297.986 2.57973 295.689 0.452393 293.075 0.452393L290.789 0.452393C288.005 0.452393 285.878 2.57973 285.878 5.36337L285.878 106.084C285.878 108.867 288.005 110.983 290.789 110.983L293.075 110.983C295.689 110.983 297.986 108.856 297.986 106.084L297.986 80.0918L303.383 74.6942L314.778 92.1316C316.249 94.4173 319.678 95.2434 321.975 93.6026L324.102 92.1316C325.573 91.1471 326.229 89.8458 326.229 88.5332C326.229 87.2206 325.573 86.2475 325.256 85.7496L312.062 66.0264L335.61 42.3202C337.737 40.1929 337.737 37.9071 335.61 35.7798" id="Shape-4" fill="#FFFFFF" fill-rule="evenodd" stroke="none" />
        <path d="M20.9339 67.1693L28.6172 33.3243C30.4164 25.4713 32.5438 11.0891 32.5438 11.0891L33.0303 11.0891C33.0303 11.0891 35.1577 25.4826 36.9568 33.3243L44.6402 67.1693L20.9226 67.1693L20.9339 67.1693ZM42.5241 5.69169C41.8678 2.57989 39.2539 0.463867 36.1421 0.463867L29.4319 0.463867C26.3201 0.463867 23.7062 2.5912 23.0499 5.69169L0.158419 105.428C0 105.914 0 106.412 0 106.899C0 108.856 1.64077 110.169 3.43995 110.655L6.22359 111.312C8.8375 111.968 11.1346 110.497 11.6211 108.042L18.3313 78.123L47.288 78.123L53.9982 108.042C54.4847 110.497 56.7818 111.968 59.3957 111.312L62.1794 110.655C63.9785 110.169 65.6193 108.856 65.6193 106.899C65.6193 106.412 65.6193 105.914 65.4609 105.428L42.5241 5.69169L42.5241 5.69169Z" id="Shape-5" fill="#C9C9C9" fill-rule="evenodd" stroke="none" />
        <path d="M81.8798 21.4319L79.5941 21.4319C76.8104 21.4319 74.6831 23.5592 74.6831 26.3429L74.6831 106.084C74.6831 108.868 76.8104 110.984 79.5941 110.984L81.8798 110.984C84.4937 110.984 86.7908 108.856 86.7908 106.084L86.7908 26.3429C86.7908 23.5592 84.5051 21.4319 81.8798 21.4319" id="Shape-6" fill="#C9C9C9" fill-rule="evenodd" stroke="none" />
        <path d="M87.5716 7.28703C87.5716 11.0664 84.5051 14.1217 80.737 14.1217C76.9689 14.1217 73.9023 11.0664 73.9023 7.28703C73.9023 3.50761 76.9689 0.452393 80.737 0.452393C84.5051 0.452393 87.5716 3.50761 87.5716 7.28703" id="Shape-7" fill="#93D607" fill-rule="evenodd" stroke="none" />
        <path d="M337.534 104.715C337.534 108.494 334.467 111.549 330.699 111.549C326.931 111.549 323.864 108.494 323.864 104.715C323.864 100.935 326.931 97.8801 330.699 97.8801C334.467 97.8801 337.534 100.935 337.534 104.715" id="Shape-8" fill="#93D607" fill-rule="evenodd" stroke="none" />
      </g>
    </g>
  </g>
</svg>