<?xml version="1.0" encoding="utf-8"?>
<svg width="298.38px" height="133.56006px" viewBox="0 0 298.38 133.56006" version="1.1" xmlns:xlink="http://www.w3.org/1999/xlink" xmlns="http://www.w3.org/2000/svg">
  <defs>
    <path d="M298.38 0L298.38 0L298.38 133.56L0 133.56L0 0L298.38 0Z" id="path_1" />
    <clipPath id="clip_1">
      <use xlink:href="#path_1" clip-rule="evenodd" fill-rule="evenodd" />
    </clipPath>
  </defs>
  <g id="aidock-logo-dark-no-slogen" clip-path="url(#clip_1)">
    <path d="M298.38 0L298.38 0L298.38 133.56L0 133.56L0 0L298.38 0Z" id="aidock-logo-dark-no-slogen" fill="none" stroke="none" />
    <g id="Group-51-Copy-4" transform="translate(0.38500977 17.49939)">
      <g id="Group-8-Copy-2">
        <path d="M127.68 79.04C127.68 84.24 123.78 88.43 118.43 88.43L101.23 88.43L101.23 18.06C101.23 14.16 104.41 10.11 109.18 10.11L119.88 10.11C124.65 10.11 127.69 14.15 127.69 18.06L127.69 79.04L127.68 79.04ZM121.32 0L119.73 0C110.48 0 106.43 6.79 102.96 6.79C101.8 6.79 101.23 6.07 100.79 5.34L98.91 2.02C98.48 1.3 97.32 0.43 95.87 0.43L93.85 0.43C91.54 0.43 90.53 2.45 90.53 3.9L90.53 98.11L121.9 98.11C132.16 98.11 138.38 90.45 138.38 82.94L138.38 16.33C138.38 5.06 130.43 0 121.32 0" id="Shape" fill="#000000" fill-rule="evenodd" stroke="none" />
        <path d="M184.16 80.45C184.16 84.93 180.69 88.4 176.21 88.4L167.53 88.4C163.2 88.4 159.73 84.93 159.73 80.45L159.73 47.22C159.73 42.89 163.2 39.27 167.68 39.27L176.36 39.27C180.69 39.27 184.16 42.88 184.16 47.22L184.16 80.45L184.16 80.45ZM178.23 29.59L165.65 29.59C156.69 29.59 149.03 36.67 149.03 45.48L149.03 81.89C149.03 90.71 156.11 98.07 165.08 98.07L178.81 98.07C187.77 98.07 194.86 90.7 194.86 81.89L194.86 45.48C194.86 36.67 187.2 29.59 178.24 29.59" id="Shape-2" fill="#000000" fill-rule="evenodd" stroke="none" />
        <path d="M241.26 88.4L225.94 88.4C220.59 88.4 216.25 86.23 216.25 79.44L216.25 48.66C216.25 43.31 218.85 39.27 225.79 39.27L239.67 39.27C242.13 39.27 244.01 37.68 244.01 35.23L244.01 33.64C244.01 31.18 242.13 29.59 239.67 29.59L222.04 29.59C213.08 29.59 205.56 36.82 205.56 45.63L205.56 81.61C205.56 90.42 212.5 98.08 221.46 98.08L241.26 98.08C243.72 98.08 245.59 96.49 245.59 94.04L245.59 92.45C245.59 89.99 243.71 88.4 241.26 88.4" id="Shape-3" fill="#000000" fill-rule="evenodd" stroke="none" />
        <path d="M296.59 31.61L295.43 30.45C293.7 28.72 291.24 28.72 289.5 30.45L263.34 56.6L263.34 4.74002C263.34 2.28002 261.31 0.400024 259 0.400024L256.98 0.400024C254.52 0.400024 252.64 2.28002 252.64 4.74002L252.64 93.75C252.64 96.21 254.52 98.08 256.98 98.08L259 98.08C261.31 98.08 263.34 96.2 263.34 93.75L263.34 70.78L268.11 66.01L278.18 81.42C279.48 83.44 282.51 84.17 284.54 82.72L286.42 81.42C287.72 80.55 288.3 79.4 288.3 78.24C288.3 77.08 287.72 76.22 287.44 75.78L275.78 58.35L296.59 37.4C298.47 35.52 298.47 33.5 296.59 31.62" id="Shape-4" fill="#000000" fill-rule="evenodd" stroke="none" />
        <path d="M18.5 59.36L25.29 29.45C26.88 22.51 28.76 9.80005 28.76 9.80005L29.19 9.80005C29.19 9.80005 31.07 22.52 32.66 29.45L39.45 59.36L18.49 59.36L18.5 59.36ZM37.58 5.03003C37 2.28003 34.69 0.410034 31.94 0.410034L26.01 0.410034C23.26 0.410034 20.95 2.29003 20.37 5.03003L0.14 93.17C0 93.6 0 94.04 0 94.47C0 96.2 1.45 97.36 3.04 97.79L5.5 98.37C7.81 98.95 9.84 97.65 10.27 95.48L16.2 69.04L41.79 69.04L47.72 95.48C48.15 97.65 50.18 98.95 52.49 98.37L54.95 97.79C56.54 97.36 57.99 96.2 57.99 94.47C57.99 94.04 57.99 93.6 57.85 93.17L37.58 5.03003L37.58 5.03003Z" id="Shape-5" fill="#78858D" fill-rule="evenodd" stroke="none" />
        <path d="M72.36 18.9399L70.34 18.9399C67.88 18.9399 66 20.8199 66 23.2799L66 93.7499C66 96.2099 67.88 98.0799 70.34 98.0799L72.36 98.0799C74.67 98.0799 76.7 96.1999 76.7 93.7499L76.7 23.2799C76.7 20.8199 74.68 18.9399 72.36 18.9399" id="Shape-6" fill="#78858D" fill-rule="evenodd" stroke="none" />
        <path d="M77.3901 6.44003C77.3901 9.78002 74.6801 12.48 71.3501 12.48C68.0201 12.48 65.3101 9.78002 65.3101 6.44002C65.3101 3.10002 68.0201 0.400024 71.3501 0.400024C74.6801 0.400024 77.3901 3.10002 77.3901 6.44002" id="Shape-7" fill="#93D607" fill-rule="evenodd" stroke="none" />
        <path d="M298.29 92.54C298.29 95.88 295.58 98.58 292.25 98.58C288.92 98.58 286.21 95.88 286.21 92.54C286.21 89.2 288.92 86.5 292.25 86.5C295.58 86.5 298.29 89.2 298.29 92.54" id="Shape-8" fill="#93D607" fill-rule="evenodd" stroke="none" />
      </g>
    </g>
  </g>
</svg>