<?xml version="1.0" encoding="UTF-8"?>
<svg id="Layer_1" data-name="Layer 1" xmlns="http://www.w3.org/2000/svg" viewBox="0 0 298.38 133.56">
  <defs>
    <style>
      .cls-1 {
        fill: #78858d;
      }

      .cls-1, .cls-2, .cls-3 {
        fill-rule: evenodd;
      }

      .cls-2 {
        fill: #93d607;
      }
    </style>
  </defs>
  <g id="Group-52-Copy">
    <g id="Group-51-Copy-4">
      <g id="Group-8-Copy-2">
        <path id="Shape" class="cls-3" d="m127.77,79.04c0,5.2-3.9,9.39-9.25,9.39h-17.2V18.06c0-3.9,3.18-7.95,7.95-7.95h10.7c4.77,0,7.81,4.04,7.81,7.95v60.98ZM121.41,0h-1.59c-9.25,0-13.3,6.79-16.77,6.79-1.16,0-1.73-.72-2.17-1.45l-1.88-3.32c-.43-.72-1.59-1.59-3.04-1.59h-2.02c-2.31,0-3.32,2.02-3.32,3.47v94.21h31.37c10.26,0,16.48-7.66,16.48-15.17V16.33c0-11.27-7.95-16.33-17.06-16.33"/>
        <path id="Shape-2" data-name="Shape" class="cls-3" d="m184.25,80.45c0,4.48-3.47,7.95-7.95,7.95h-8.68c-4.33,0-7.8-3.47-7.8-7.95v-33.23c0-4.33,3.47-7.95,7.95-7.95h8.68c4.33,0,7.8,3.61,7.8,7.95v33.23Zm-5.93-50.86h-12.58c-8.96,0-16.62,7.08-16.62,15.89v36.41c0,8.82,7.08,16.18,16.05,16.18h13.73c8.96,0,16.05-7.37,16.05-16.18v-36.41c0-8.81-7.66-15.89-16.62-15.89"/>
        <path id="Shape-3" data-name="Shape" class="cls-3" d="m241.35,88.4h-15.32c-5.35,0-9.69-2.17-9.69-8.96v-30.78c0-5.35,2.6-9.39,9.54-9.39h13.88c2.46,0,4.34-1.59,4.34-4.04v-1.59c0-2.46-1.88-4.05-4.34-4.05h-17.63c-8.96,0-16.48,7.23-16.48,16.04v35.98c0,8.81,6.94,16.47,15.9,16.47h19.8c2.46,0,4.33-1.59,4.33-4.04v-1.59c0-2.46-1.88-4.05-4.33-4.05"/>
        <path id="Shape-4" data-name="Shape" class="cls-3" d="m296.68,31.61l-1.16-1.16c-1.73-1.73-4.19-1.73-5.93,0l-26.16,26.15V4.74c0-2.46-2.03-4.34-4.34-4.34h-2.02c-2.46,0-4.34,1.88-4.34,4.34v89.01c0,2.46,1.88,4.33,4.34,4.33h2.02c2.31,0,4.34-1.88,4.34-4.33v-22.97l4.77-4.77,10.07,15.41c1.3,2.02,4.33,2.75,6.36,1.3l1.88-1.3c1.3-.87,1.88-2.02,1.88-3.18s-.58-2.02-.86-2.46l-11.66-17.43,20.81-20.95c1.88-1.88,1.88-3.9,0-5.78"/>
        <path id="Shape-5" data-name="Shape" class="cls-1" d="m18.59,59.36l6.79-29.91c1.59-6.94,3.47-19.65,3.47-19.65h.43s1.88,12.72,3.47,19.65l6.79,29.91h-20.96ZM37.67,5.03c-.58-2.75-2.89-4.62-5.64-4.62h-5.93c-2.75,0-5.06,1.88-5.64,4.62L.23,93.17c-.14.43-.14.87-.14,1.3,0,1.73,1.45,2.89,3.04,3.32l2.46.58c2.31.58,4.34-.72,4.77-2.89l5.93-26.44h25.59l5.93,26.44c.43,2.17,2.46,3.47,4.77,2.89l2.46-.58c1.59-.43,3.04-1.59,3.04-3.32,0-.43,0-.87-.14-1.3L37.67,5.03Z"/>
        <path id="Shape-6" data-name="Shape" class="cls-1" d="m72.45,18.94h-2.02c-2.46,0-4.34,1.88-4.34,4.34v70.47c0,2.46,1.88,4.33,4.34,4.33h2.02c2.31,0,4.34-1.88,4.34-4.33V23.28c0-2.46-2.02-4.34-4.34-4.34"/>
        <path id="Shape-7" data-name="Shape" class="cls-2" d="m77.48,6.44c0,3.34-2.71,6.04-6.04,6.04s-6.04-2.7-6.04-6.04,2.71-6.04,6.04-6.04,6.04,2.7,6.04,6.04"/>
        <path id="Shape-8" data-name="Shape" class="cls-2" d="m298.38,92.54c0,3.34-2.71,6.04-6.04,6.04s-6.04-2.7-6.04-6.04,2.71-6.04,6.04-6.04,6.04,2.7,6.04,6.04"/>
      </g>
    </g>
    <g id="SIMPLIFY-CUSTOMS-COMPLEXITY">
      <path d="m7.61,129.4c0-.78-.21-1.38-.63-1.79-.42-.42-1.19-.82-2.29-1.21-1.1-.39-1.95-.81-2.53-1.24-.58-.43-1.02-.93-1.31-1.48-.29-.55-.44-1.19-.44-1.91,0-1.24.41-2.26,1.24-3.06.83-.8,1.91-1.2,3.25-1.2.92,0,1.73.21,2.45.62.72.41,1.27.98,1.65,1.71.39.73.58,1.53.58,2.41h-1.98c0-.97-.23-1.72-.7-2.25-.47-.53-1.14-.79-2.01-.79-.79,0-1.41.22-1.85.67-.44.44-.66,1.07-.66,1.87,0,.66.24,1.21.71,1.65.47.44,1.2.84,2.19,1.19,1.54.51,2.64,1.14,3.3,1.88.66.74.99,1.72.99,2.92,0,1.27-.41,2.28-1.24,3.05-.82.76-1.94,1.14-3.36,1.14-.91,0-1.75-.2-2.52-.6-.77-.4-1.37-.96-1.82-1.68-.44-.72-.66-1.55-.66-2.48h1.98c0,.97.27,1.72.81,2.26.54.54,1.28.81,2.21.81.87,0,1.52-.22,1.96-.67s.66-1.05.66-1.82Zm90.37,2.84c.86-.89,1.33-2.17,1.41-3.85h-1.99c-.11,1.32-.39,2.23-.84,2.74-.45.51-1.19.76-2.21.76s-1.8-.42-2.34-1.27c-.53-.85-.8-2.06-.8-3.64v-2.87c0-1.61.29-2.83.86-3.67.57-.83,1.39-1.25,2.46-1.25.92,0,1.61.27,2.06.82.45.54.72,1.45.81,2.73h1.99c-.07-1.68-.52-2.98-1.35-3.88-.83-.91-2-1.36-3.51-1.36-1.64,0-2.93.59-3.88,1.77-.95,1.18-1.42,2.79-1.42,4.82v2.84c0,2.04.46,3.66,1.39,4.85.92,1.19,2.17,1.79,3.74,1.79s2.77-.44,3.63-1.33Zm22.63-4.63c.42.42.63,1.01.63,1.79,0,.77-.22,1.37-.65,1.82-.44.44-1.09.67-1.96.67-.93,0-1.67-.27-2.21-.81-.54-.54-.81-1.29-.81-2.26h-1.98c0,.93.22,1.76.66,2.48.44.72,1.04,1.28,1.81,1.68.77.4,1.61.6,2.52.6,1.42,0,2.54-.38,3.36-1.14.82-.76,1.24-1.78,1.24-3.05s-.33-2.18-.99-2.92c-.66-.74-1.76-1.37-3.3-1.88-.99-.35-1.72-.75-2.19-1.19-.47-.44-.71-1-.71-1.65,0-.8.22-1.43.66-1.87.44-.44,1.05-.67,1.85-.67.87,0,1.54.26,2.01.79.47.53.7,1.28.7,2.25h1.98c0-.87-.19-1.68-.58-2.41-.39-.73-.94-1.3-1.65-1.71-.72-.41-1.53-.62-2.45-.62-1.34,0-2.42.4-3.25,1.2-.83.8-1.24,1.82-1.24,3.06,0,.72.15,1.35.43,1.91.29.56.73,1.05,1.31,1.48.58.43,1.43.85,2.53,1.24,1.1.39,1.87.8,2.29,1.21Zm25.46,4.23c.91-1.15,1.36-2.8,1.36-4.93v-2.85c-.02-2.11-.49-3.73-1.41-4.86-.92-1.14-2.2-1.7-3.85-1.7s-2.94.59-3.87,1.78c-.92,1.19-1.39,2.82-1.39,4.91v2.94c.04,2.05.52,3.63,1.46,4.75.93,1.12,2.21,1.68,3.82,1.68s2.97-.58,3.88-1.73Zm27.22-4.23c.42.42.63,1.01.63,1.79s-.22,1.37-.65,1.82c-.44.44-1.09.67-1.96.67-.93,0-1.67-.27-2.21-.81-.54-.54-.81-1.29-.81-2.26h-1.98c0,.93.22,1.76.66,2.48.44.72,1.05,1.28,1.82,1.68.77.4,1.61.6,2.52.6,1.42,0,2.54-.38,3.36-1.14.82-.76,1.24-1.78,1.24-3.05s-.33-2.18-.99-2.92c-.66-.74-1.76-1.37-3.3-1.88-.99-.35-1.72-.75-2.19-1.19-.47-.44-.71-1-.71-1.65,0-.8.22-1.43.65-1.87.44-.44,1.05-.67,1.85-.67.87,0,1.54.26,2.01.79.47.53.7,1.28.7,2.25h1.98c0-.87-.19-1.68-.58-2.41-.39-.73-.94-1.3-1.65-1.71-.72-.41-1.53-.62-2.45-.62-1.34,0-2.42.4-3.25,1.2-.83.8-1.24,1.82-1.24,3.06,0,.72.14,1.35.43,1.91.29.56.73,1.05,1.31,1.48.58.43,1.43.85,2.53,1.24,1.1.39,1.87.8,2.29,1.21Zm20.04.78c-.09,1.68-.56,2.96-1.41,3.85-.86.89-2.06,1.33-3.63,1.33s-2.81-.6-3.74-1.79c-.92-1.19-1.39-2.81-1.39-4.85v-2.84c0-2.03.47-3.64,1.42-4.82.95-1.18,2.24-1.77,3.88-1.77,1.51,0,2.68.45,3.51,1.36.83.91,1.28,2.2,1.35,3.88h-1.99c-.09-1.27-.35-2.18-.81-2.73-.45-.54-1.14-.82-2.06-.82-1.07,0-1.89.42-2.46,1.25-.57.83-.86,2.06-.86,3.67v2.87c0,1.58.27,2.8.8,3.64.53.85,1.31,1.27,2.34,1.27s1.76-.25,2.21-.76c.45-.51.73-1.42.84-2.74h1.99Zm11.47,3.45c.91-1.15,1.36-2.8,1.36-4.93v-2.85c-.02-2.11-.49-3.73-1.41-4.86-.92-1.14-2.2-1.7-3.85-1.7s-2.94.59-3.87,1.78c-.92,1.19-1.39,2.82-1.38,4.91v2.94c.04,2.05.52,3.63,1.46,4.75.93,1.12,2.21,1.68,3.82,1.68s2.97-.58,3.88-1.73Zm-190.58,1.51h-1.97v-15.64h1.97v15.64Zm10.07-2.88l-4.08-12.76h-2.54v15.64h1.97v-6.09l-.18-6.06,4.07,12.15h1.5l4.09-12.19-.18,6.1v6.09h1.97v-15.64h-2.54l-4.08,12.76Zm11.97-3.24v6.12h-1.97v-15.64h4.98c1.45,0,2.6.44,3.43,1.31.83.87,1.25,2.03,1.25,3.48s-.4,2.66-1.19,3.48c-.79.81-1.91,1.23-3.35,1.26h-3.16Zm18.34,4.44h-6.13v-13.95h-1.98v15.64h8.11v-1.69Zm4.39,1.69h-1.97v-15.64h1.97v15.64Zm5.41-6.91h5.29v-1.69h-5.29v-5.35h6.18v-1.7h-8.14v15.64h1.97v-6.91Zm12.68-.88l3.2-7.85h2.22l-4.45,9.81v5.83h-1.97v-5.83l-4.45-9.81h2.23l3.2,7.85Zm34.3-7.85v11.12c-.01,1.48-.44,2.64-1.29,3.48-.85.84-2.02,1.26-3.53,1.26s-2.73-.41-3.54-1.23c-.82-.82-1.23-1.99-1.25-3.51v-11.12h1.95v11.04c0,1.05.22,1.84.67,2.36.45.52,1.17.78,2.16.78s1.73-.26,2.18-.78c.45-.52.67-1.31.67-2.36v-11.04h1.98Zm23.57,1.7h-4.11v13.94h-1.97v-13.94h-4.1v-1.7h10.18v1.7Zm26.22-1.7h2.54v15.64h-1.97v-6.09l.18-6.1-4.09,12.19h-1.5l-4.07-12.15.18,6.06v6.09h-1.97v-15.64h2.54l4.08,12.76,4.08-12.76Zm58.74,0h2.54v15.64h-1.97v-6.09l.18-6.1-4.09,12.19h-1.5l-4.07-12.15.18,6.06v6.09h-1.97v-15.64h2.53l4.08,12.76,4.08-12.76Zm7.89,15.64v-6.12h3.16c1.44-.03,2.56-.45,3.35-1.26.79-.81,1.19-1.97,1.19-3.48s-.42-2.6-1.25-3.48c-.83-.87-1.97-1.31-3.43-1.31h-4.99v15.64h1.97Zm12.2-1.69h6.13v1.69h-8.11v-15.64h1.98v13.95Zm10.44-5.54h5.53v-1.69h-5.53v-5.03h6.34v-1.7h-8.3v15.64h8.41v-1.69h-6.44v-5.54Zm13.35-2.42l2.94-5.99h2.31l-4.07,7.76,4.16,7.88h-2.33l-3.01-6.1-3.02,6.1h-2.33l4.18-7.88-4.09-7.76h2.3l2.96,5.99Zm7.81,9.65h1.97v-15.64h-1.97v15.64Zm14.55-13.94h-4.11v13.94h-1.97v-13.94h-4.1v-1.7h10.18v1.7Zm9.58-1.7l-3.2,7.85-3.2-7.85h-2.23l4.45,9.81v5.83h1.97v-5.83l4.45-9.81h-2.22Zm-151.08,2.77c.54.81.81,2.04.81,3.69v2.93c-.02,1.6-.3,2.78-.83,3.56-.53.77-1.35,1.16-2.45,1.16s-1.93-.42-2.49-1.26c-.56-.84-.83-2.06-.83-3.65v-2.8c0-1.59.29-2.79.84-3.61.55-.82,1.37-1.22,2.45-1.22,1.12,0,1.95.4,2.49,1.21Zm58.74,0c.54.81.81,2.04.81,3.69v2.93c-.02,1.6-.3,2.78-.83,3.56-.53.77-1.35,1.16-2.45,1.16s-1.93-.42-2.49-1.26c-.55-.84-.83-2.06-.83-3.65v-2.8c0-1.59.29-2.79.84-3.61.55-.82,1.37-1.22,2.45-1.22,1.12,0,1.95.4,2.49,1.21Zm-167.13,5.06h3.02c.87,0,1.54-.26,2.01-.78.47-.52.7-1.27.7-2.25s-.24-1.69-.72-2.26c-.48-.57-1.14-.85-1.98-.85h-3.03v6.13Zm194.55,0h-3.02v-6.13h3.03c.84,0,1.5.28,1.98.85.48.57.72,1.32.72,2.26s-.23,1.72-.7,2.25c-.47.52-1.14.78-2.01.78Z"/>
    </g>
  </g>
</svg>