<?xml version="1.0" encoding="utf-8"?>
<svg width="500.00003px" height="500px" viewBox="0 0 500.00003 500" version="1.1" xmlns:xlink="http://www.w3.org/1999/xlink" xmlns="http://www.w3.org/2000/svg">
  <defs>
    <path d="M500 0L500 0L500 500L0 500L0 0L500 0Z" id="path_1" />
    <path d="M337.53 0L337.53 0L337.53 151.084L0 151.084L0 0L337.53 0Z" id="path_2" />
    <clipPath id="clip_1">
      <use xlink:href="#path_1" clip-rule="evenodd" fill-rule="evenodd" />
    </clipPath>
    <clipPath id="clip_2">
      <use xlink:href="#path_2" clip-rule="evenodd" fill-rule="evenodd" />
    </clipPath>
  </defs>
  <g id="aidock-logo-dark-round" clip-path="url(#clip_1)">
    <path d="M500 0L500 0L500 500L0 500L0 0L500 0Z" id="aidock-logo-dark-round" fill="none" stroke="none" />
    <path d="M-0.296387 250C-0.296387 111.929 111.632 0 249.704 0C387.775 0 499.704 111.929 499.704 250C499.704 388.071 387.775 500 249.704 500C111.632 500 -0.296387 388.071 -0.296387 250Z" id="Oval" fill="#000000" fill-rule="evenodd" stroke="none" />
    <g id="aidock-logo-light" clip-path="url(#clip_2)" transform="translate(81 175)">
      <path d="M337.53 0L337.53 0L337.53 151.084L0 151.084L0 0L337.53 0Z" id="aidock-logo-light" fill="none" stroke="none" />
      <g id="Group-52" transform="translate(-0.0339694 0)">
        <g id="Group-51-Copy-4" transform="translate(0.1357395 0)">
          <g id="Group-8-Copy-2">
            <path d="M144.433 89.4108C144.433 95.2931 140.021 100.033 133.969 100.033L114.512 100.033L114.512 20.4297C114.512 16.018 118.109 11.4366 123.505 11.4366L135.609 11.4366C141.005 11.4366 144.444 16.0067 144.444 20.4297L144.444 89.4108L144.433 89.4108ZM137.238 0L135.44 0C124.976 0 120.395 7.68091 116.469 7.68091C115.157 7.68091 114.512 6.86643 114.015 6.04065L111.888 2.28504C111.401 1.47057 110.089 0.48642 108.449 0.48642L106.164 0.48642C103.551 0.48642 102.408 2.77146 102.408 4.41171L102.408 110.983L137.894 110.983C149.501 110.983 156.537 102.318 156.537 93.8224L156.537 18.4726C156.537 5.72391 147.544 0 137.238 0" id="Shape" fill="#FFFFFF" fill-rule="evenodd" stroke="none" />
            <path d="M208.323 91.0057C208.323 96.0736 204.398 99.9988 199.33 99.9988L189.511 99.9988C184.613 99.9988 180.688 96.0735 180.688 91.0057L180.688 53.4157C180.688 48.5176 184.613 44.4226 189.681 44.4226L199.5 44.4226C204.398 44.4226 208.323 48.5062 208.323 53.4157L208.323 91.0057L208.323 91.0057ZM201.615 33.4726L187.385 33.4726C177.249 33.4726 168.584 41.4815 168.584 51.4475L168.584 92.6348C168.584 102.612 176.593 110.938 186.74 110.938L202.271 110.938C212.407 110.938 220.427 102.601 220.427 92.6348L220.427 51.4475C220.427 41.4815 211.762 33.4726 201.627 33.4726" id="Shape-2" fill="#FFFFFF" fill-rule="evenodd" stroke="none" />
            <path d="M272.915 99.9989L255.585 99.9989C249.533 99.9989 244.624 97.5442 244.624 89.8633L244.624 55.0447C244.624 48.9927 247.565 44.4227 255.416 44.4227L271.117 44.4227C273.9 44.4227 276.026 42.624 276.026 39.8526L276.026 38.054C276.026 35.2712 273.9 33.4726 271.117 33.4726L251.174 33.4726C241.038 33.4726 232.531 41.6512 232.531 51.6171L232.531 92.318C232.531 102.284 240.382 110.949 250.517 110.949L272.915 110.949C275.698 110.949 277.814 109.15 277.814 106.379L277.814 104.58C277.814 101.798 275.687 99.9989 272.915 99.9989" id="Shape-3" fill="#FFFFFF" fill-rule="evenodd" stroke="none" />
            <path d="M335.505 35.7574L334.193 34.4452C332.236 32.4882 329.453 32.4882 327.485 34.4452L297.892 64.0263L297.892 5.36182C297.892 2.57904 295.596 0.452373 292.983 0.452373L290.698 0.452373C287.915 0.452373 285.789 2.57904 285.789 5.36182L285.789 106.051C285.789 108.833 287.915 110.949 290.698 110.949L292.983 110.949C295.596 110.949 297.892 108.822 297.892 106.051L297.892 80.0668L303.288 74.671L314.68 92.1029C316.15 94.3879 319.578 95.2137 321.874 93.5734L324.001 92.1029C325.471 91.1187 326.127 89.8178 326.127 88.5056C326.127 87.1934 325.471 86.2206 325.155 85.7229L311.965 66.0059L335.505 42.3071C337.632 40.1804 337.632 37.8954 335.505 35.7687" id="Shape-4" fill="#FFFFFF" fill-rule="evenodd" stroke="none" />
            <path d="M20.9273 67.1483L28.6083 33.3139C30.4069 25.4633 32.5335 11.0856 32.5335 11.0856L33.02 11.0856C33.02 11.0856 35.1466 25.4746 36.9453 33.3139L44.6262 67.1483L20.916 67.1483L20.9273 67.1483ZM42.5108 5.68988C41.8547 2.57906 39.2416 0.463696 36.1308 0.463696L29.4227 0.463696C26.3119 0.463696 23.6988 2.59037 23.0427 5.68988L0.158369 105.395C0 105.881 0 106.379 0 106.865C0 108.822 1.64025 110.134 3.43887 110.621L6.22165 111.277C8.83474 111.933 11.1311 110.462 11.6175 108.008L18.3256 78.0985L47.2732 78.0985L53.9813 108.008C54.4677 110.462 56.764 111.933 59.3771 111.277L62.1599 110.621C63.9585 110.134 65.5988 108.822 65.5988 106.865C65.5988 106.379 65.5988 105.881 65.4404 105.395L42.5108 5.68988L42.5108 5.68988Z" id="Shape-5" fill="#C9C9C9" fill-rule="evenodd" stroke="none" />
            <path d="M81.8543 21.425L79.5692 21.425C76.7864 21.425 74.6598 23.5517 74.6598 26.3345L74.6598 106.051C74.6598 108.833 76.7864 110.949 79.5692 110.949L81.8542 110.949C84.4673 110.949 86.7637 108.822 86.7637 106.051L86.7637 26.3345C86.7637 23.5517 84.4787 21.425 81.8543 21.425" id="Shape-6" fill="#C9C9C9" fill-rule="evenodd" stroke="none" />
            <path d="M87.5442 7.28487C87.5442 11.0631 84.4787 14.1174 80.7117 14.1174C76.9448 14.1174 73.8792 11.0631 73.8792 7.28487C73.8792 3.50664 76.9448 0.452373 80.7117 0.452373C84.4787 0.452373 87.5442 3.50664 87.5442 7.28487" id="Shape-7" fill="#93D607" fill-rule="evenodd" stroke="none" />
            <path d="M337.428 104.682C337.428 108.46 334.363 111.515 330.596 111.515C326.829 111.515 323.763 108.46 323.763 104.682C323.763 100.904 326.829 97.8495 330.596 97.8495C334.363 97.8495 337.428 100.904 337.428 104.682" id="Shape-8" fill="#93D607" fill-rule="evenodd" stroke="none" />
          </g>
        </g>
        <path d="M8.64243 146.378C8.64243 145.496 8.40488 144.817 7.92977 144.354C7.45466 143.878 6.58363 143.426 5.3393 142.985C4.09497 142.544 3.13345 142.068 2.47735 141.582C1.82124 141.096 1.32351 140.53 0.995462 139.908C0.667412 139.286 0.497731 138.562 0.497731 137.747C0.497731 136.345 0.961526 135.191 1.90043 134.286C2.83933 133.381 4.06104 132.928 5.57686 132.928C6.61757 132.928 7.53385 133.166 8.34832 133.63C9.16279 134.093 9.78495 134.738 10.2148 135.564C10.656 136.39 10.8709 137.295 10.8709 138.29L8.63112 138.29C8.63112 137.193 8.37094 136.345 7.83927 135.745C7.30761 135.145 6.5497 134.851 5.56555 134.851C4.67189 134.851 3.97054 135.1 3.47281 135.609C2.97508 136.107 2.72621 136.82 2.72621 137.725C2.72621 138.471 2.9977 139.093 3.52937 139.591C4.06104 140.089 4.88682 140.541 6.00672 140.937C7.74878 141.514 8.99311 142.227 9.73971 143.064C10.4863 143.901 10.8596 145.01 10.8596 146.367C10.8596 147.804 10.3958 148.946 9.4569 149.817C8.52931 150.677 7.26236 151.107 5.65604 151.107C4.62664 151.107 3.67643 150.881 2.8054 150.428C1.93437 149.976 1.25564 149.342 0.746598 148.528C0.248866 147.713 0 146.774 0 145.722L2.23979 145.722C2.23979 146.82 2.54522 147.668 3.15607 148.279C3.76692 148.89 4.60402 149.195 5.65604 149.195C6.64019 149.195 7.37548 148.946 7.87321 148.437C8.37094 147.928 8.61981 147.249 8.61981 146.378L8.64243 146.378ZM110.87 149.591C111.843 148.584 112.374 147.136 112.465 145.236L110.214 145.236C110.089 146.729 109.772 147.758 109.263 148.335C108.754 148.912 107.917 149.195 106.763 149.195C105.61 149.195 104.727 148.72 104.116 147.758C103.517 146.797 103.211 145.428 103.211 143.641L103.211 140.394C103.211 138.573 103.54 137.193 104.184 136.243C104.829 135.304 105.757 134.829 106.967 134.829C108.008 134.829 108.788 135.134 109.297 135.756C109.806 136.367 110.112 137.397 110.214 138.845L112.465 138.845C112.386 136.944 111.877 135.474 110.938 134.455C109.999 133.426 108.675 132.917 106.967 132.917C105.112 132.917 103.653 133.584 102.578 134.919C101.503 136.254 100.972 138.075 100.972 140.372L100.972 143.584C100.972 145.892 101.492 147.725 102.544 149.071C103.585 150.417 104.999 151.096 106.775 151.096C108.551 151.096 109.908 150.598 110.881 149.591L110.87 149.591ZM136.469 144.354C136.944 144.829 137.182 145.496 137.182 146.378C137.182 147.249 136.933 147.928 136.446 148.437C135.949 148.935 135.213 149.195 134.229 149.195C133.177 149.195 132.34 148.89 131.729 148.279C131.118 147.668 130.813 146.82 130.813 145.722L128.573 145.722C128.573 146.774 128.822 147.713 129.32 148.528C129.817 149.342 130.496 149.976 131.367 150.428C132.238 150.881 133.188 151.107 134.218 151.107C135.824 151.107 137.091 150.677 138.019 149.817C138.946 148.958 139.421 147.804 139.421 146.367C139.421 144.93 139.048 143.901 138.302 143.064C137.555 142.227 136.311 141.514 134.569 140.937C133.449 140.541 132.623 140.089 132.091 139.591C131.56 139.093 131.288 138.46 131.288 137.725C131.288 136.82 131.537 136.107 132.035 135.609C132.532 135.112 133.222 134.851 134.127 134.851C135.112 134.851 135.869 135.145 136.401 135.745C136.933 136.345 137.193 137.193 137.193 138.29L139.433 138.29C139.433 137.306 139.218 136.39 138.777 135.564C138.335 134.738 137.713 134.093 136.91 133.63C136.096 133.166 135.179 132.928 134.139 132.928C132.623 132.928 131.401 133.381 130.462 134.286C129.523 135.191 129.06 136.345 129.06 137.747C129.06 138.562 129.229 139.274 129.546 139.908C129.874 140.541 130.372 141.096 131.028 141.582C131.684 142.068 132.645 142.544 133.89 142.985C135.134 143.426 136.005 143.89 136.48 144.354L136.469 144.354ZM165.27 149.139C166.299 147.838 166.808 145.971 166.808 143.562L166.808 140.338C166.785 137.951 166.254 136.118 165.213 134.84C164.172 133.55 162.724 132.917 160.858 132.917C158.991 132.917 157.532 133.584 156.48 134.931C155.439 136.277 154.908 138.121 154.908 140.485L154.908 143.811C154.953 146.13 155.496 147.917 156.559 149.184C157.611 150.451 159.059 151.084 160.88 151.084C162.702 151.084 164.24 150.428 165.27 149.127L165.27 149.139ZM196.061 144.354C196.536 144.829 196.774 145.496 196.774 146.378C196.774 147.261 196.525 147.928 196.038 148.437C195.541 148.935 194.805 149.195 193.821 149.195C192.769 149.195 191.932 148.89 191.321 148.279C190.71 147.668 190.405 146.82 190.405 145.722L188.165 145.722C188.165 146.774 188.414 147.713 188.912 148.528C189.41 149.342 190.1 149.976 190.971 150.428C191.842 150.881 192.792 151.107 193.821 151.107C195.428 151.107 196.695 150.677 197.622 149.817C198.55 148.958 199.025 147.804 199.025 146.367C199.025 144.93 198.652 143.901 197.905 143.064C197.158 142.227 195.914 141.514 194.172 140.937C193.052 140.541 192.226 140.089 191.695 139.591C191.163 139.093 190.891 138.46 190.891 137.725C190.891 136.82 191.14 136.107 191.627 135.609C192.124 135.112 192.815 134.851 193.719 134.851C194.704 134.851 195.462 135.145 195.993 135.745C196.525 136.345 196.785 137.193 196.785 138.29L199.025 138.29C199.025 137.306 198.81 136.39 198.369 135.564C197.928 134.738 197.305 134.093 196.502 133.63C195.688 133.166 194.771 132.928 193.731 132.928C192.215 132.928 190.993 133.381 190.054 134.286C189.115 135.191 188.652 136.345 188.652 137.747C188.652 138.562 188.81 139.274 189.138 139.908C189.466 140.541 189.964 141.096 190.62 141.582C191.276 142.068 192.238 142.544 193.482 142.985C194.726 143.426 195.597 143.89 196.072 144.354L196.061 144.354ZM218.73 145.236C218.629 147.136 218.097 148.584 217.135 149.591C216.163 150.598 214.805 151.095 213.029 151.095C211.253 151.095 209.851 150.417 208.798 149.071C207.758 147.725 207.226 145.892 207.226 143.584L207.226 140.372C207.226 138.075 207.758 136.254 208.832 134.919C209.907 133.584 211.366 132.917 213.221 132.917C214.93 132.917 216.253 133.426 217.192 134.455C218.131 135.485 218.64 136.944 218.719 138.845L216.468 138.845C216.366 137.408 216.072 136.378 215.552 135.756C215.043 135.145 214.262 134.829 213.221 134.829C212.011 134.829 211.084 135.304 210.439 136.243C209.794 137.182 209.466 138.573 209.466 140.394L209.466 143.641C209.466 145.428 209.771 146.808 210.371 147.758C210.97 148.72 211.853 149.195 213.018 149.195C214.183 149.195 215.009 148.912 215.518 148.335C216.027 147.758 216.344 146.729 216.468 145.236L218.719 145.236L218.73 145.236ZM231.705 149.139C232.735 147.838 233.244 145.971 233.244 143.562L233.244 140.338C233.221 137.951 232.69 136.118 231.649 134.84C230.608 133.55 229.16 132.917 227.294 132.917C225.427 132.917 223.968 133.584 222.916 134.931C221.875 136.277 221.344 138.121 221.355 140.485L221.355 143.811C221.4 146.13 221.943 147.917 223.006 149.184C224.059 150.451 225.506 151.084 227.328 151.084C229.149 151.084 230.687 150.428 231.717 149.127L231.705 149.139ZM16.1198 150.847L13.8913 150.847L13.8913 133.154L16.1198 133.154L16.1198 150.847L16.1198 150.847ZM27.511 147.589L22.8957 133.154L20.0224 133.154L20.0224 150.847L22.2509 150.847L22.2509 143.958L22.0473 137.102L26.6513 150.847L28.3481 150.847L32.9747 137.057L32.7711 143.958L32.7711 150.847L34.9996 150.847L34.9996 133.155L32.1263 133.155L27.511 147.589L27.511 147.589ZM41.0516 143.924L41.0516 150.847L38.8231 150.847L38.8231 133.154L44.4565 133.154C46.0968 133.154 47.3976 133.652 48.3365 134.636C49.2755 135.621 49.7506 136.933 49.7506 138.573C49.7506 140.213 49.2981 141.582 48.4044 142.51C47.5108 143.426 46.2438 143.901 44.6149 143.935L41.0403 143.935L41.0516 143.924ZM61.7979 148.946L54.8636 148.946L54.8636 133.166L52.6238 133.166L52.6238 150.858L61.7979 150.858L61.7979 148.946L61.7979 148.946ZM66.7639 150.858L64.5354 150.858L64.5354 133.166L66.7639 133.166L66.7639 150.858L66.7639 150.858ZM72.8838 143.041L78.8679 143.041L78.8679 141.13L72.8838 141.13L72.8838 135.078L79.8747 135.078L79.8747 133.154L70.6666 133.154L70.6666 150.847L72.8951 150.847L72.8951 143.03L72.8838 143.041ZM87.2275 142.046L90.8474 133.166L93.3587 133.166L88.3248 144.263L88.3248 150.858L86.0963 150.858L86.0963 144.263L81.0624 133.166L83.585 133.166L87.2049 142.046L87.2275 142.046ZM126.028 133.166L126.028 145.745C126.017 147.419 125.53 148.731 124.569 149.681C123.607 150.632 122.284 151.107 120.576 151.107C118.867 151.107 117.487 150.643 116.571 149.715C115.644 148.788 115.18 147.464 115.157 145.745L115.157 133.166L117.363 133.166L117.363 145.654C117.363 146.842 117.612 147.736 118.121 148.324C118.63 148.912 119.444 149.206 120.564 149.206C121.684 149.206 122.521 148.912 123.03 148.324C123.539 147.736 123.788 146.842 123.788 145.654L123.788 133.166L126.028 133.166L126.028 133.166ZM152.691 135.089L148.041 135.089L148.041 150.858L145.813 150.858L145.813 135.089L141.175 135.089L141.175 133.166L152.691 133.166L152.691 135.089L152.691 135.089ZM182.351 133.166L185.224 133.166L185.224 150.858L182.996 150.858L182.996 143.969L183.199 137.069L178.573 150.858L176.876 150.858L172.272 137.114L172.475 143.969L172.475 150.858L170.247 150.858L170.247 133.166L173.12 133.166L177.735 147.6L182.351 133.166L182.351 133.166ZM248.798 133.166L251.671 133.166L251.671 150.858L249.443 150.858L249.443 143.969L249.646 137.069L245.02 150.858L243.323 150.858L238.719 137.114L238.923 143.969L238.923 150.858L236.694 150.858L236.694 133.166L239.556 133.166L244.171 147.6L248.787 133.166L248.798 133.166ZM257.723 150.858L257.723 143.935L261.298 143.935C262.927 143.901 264.194 143.426 265.087 142.51C265.981 141.593 266.434 140.281 266.434 138.573C266.434 136.865 265.958 135.632 265.02 134.636C264.081 133.652 262.791 133.154 261.14 133.154L255.495 133.154L255.495 150.847L257.723 150.847L257.723 150.858ZM271.524 148.946L278.458 148.946L278.458 150.858L269.284 150.858L269.284 133.166L271.524 133.166L271.524 148.946L271.524 148.946ZM283.334 142.679L289.589 142.679L289.589 140.768L283.334 140.768L283.334 135.078L290.506 135.078L290.506 133.154L281.117 133.154L281.117 150.847L290.63 150.847L290.63 148.935L283.345 148.935L283.345 142.668L283.334 142.679ZM298.435 139.942L301.761 133.166L304.374 133.166L299.77 141.944L304.476 150.858L301.84 150.858L298.435 143.958L295.019 150.858L292.384 150.858L297.112 141.944L292.485 133.166L295.087 133.166L298.435 139.942L298.435 139.942ZM307.27 150.858L309.499 150.858L309.499 133.166L307.27 133.166L307.27 150.858L307.27 150.858ZM323.729 135.089L319.08 135.089L319.08 150.858L316.852 150.858L316.852 135.089L312.214 135.089L312.214 133.166L323.729 133.166L323.729 135.089L323.729 135.089ZM334.566 133.166L330.946 142.046L327.326 133.166L324.804 133.166L329.838 144.263L329.838 150.858L332.066 150.858L332.066 144.263L337.1 133.166L334.589 133.166L334.566 133.166ZM163.663 136.299C164.274 137.216 164.579 138.607 164.579 140.474L164.579 143.788C164.557 145.598 164.24 146.933 163.641 147.815C163.041 148.686 162.113 149.127 160.869 149.127C159.625 149.127 158.686 148.652 158.052 147.702C157.419 146.752 157.113 145.372 157.113 143.573L157.113 140.406C157.113 138.607 157.442 137.25 158.064 136.322C158.686 135.394 159.613 134.942 160.835 134.942C162.102 134.942 163.041 135.394 163.652 136.311L163.663 136.299ZM230.11 136.299C230.721 137.216 231.027 138.607 231.027 140.474L231.027 143.788C231.004 145.598 230.687 146.933 230.088 147.815C229.488 148.686 228.561 149.127 227.316 149.127C226.072 149.127 225.133 148.652 224.5 147.702C223.877 146.752 223.561 145.372 223.561 143.573L223.561 140.406C223.561 138.607 223.889 137.25 224.511 136.322C225.133 135.394 226.061 134.942 227.282 134.942C228.549 134.942 229.488 135.394 230.099 136.311L230.11 136.299ZM41.0515 142.023L44.4678 142.023C45.4519 142.023 46.2098 141.729 46.7415 141.141C47.2732 140.553 47.5334 139.704 47.5334 138.596C47.5334 137.487 47.2619 136.684 46.7189 136.039C46.1759 135.394 45.4293 135.077 44.4791 135.077L41.0515 135.077L41.0515 142.012L41.0515 142.023ZM261.128 142.023L257.712 142.023L257.712 135.089L261.139 135.089C262.09 135.089 262.836 135.406 263.379 136.05C263.922 136.695 264.194 137.544 264.194 138.607C264.194 139.67 263.934 140.553 263.402 141.152C262.87 141.74 262.112 142.034 261.128 142.034L261.128 142.023Z" id="SIMPLIFY-CUSTOMS-COMPLEXITY" fill="#FFFFFF" fill-rule="evenodd" stroke="none" />
      </g>
    </g>
  </g>
</svg>