<?xml version="1.0" encoding="utf-8"?>
<svg width="283.71802px" height="284px" viewBox="0 0 283.71802 284" version="1.1" xmlns:xlink="http://www.w3.org/1999/xlink" xmlns="http://www.w3.org/2000/svg">
  <defs>
    <path d="M283.718 0L283.718 0L283.718 284L0 284L0 0L283.718 0Z" id="path_1" />
    <clipPath id="clip_1">
      <use xlink:href="#path_1" clip-rule="evenodd" fill-rule="evenodd" />
    </clipPath>
  </defs>
  <g id="aidock-favicon-light" clip-path="url(#clip_1)">
    <path d="M283.718 0L283.718 0L283.718 284L0 284L0 0L283.718 0Z" id="aidock-favicon-light" fill="none" stroke="none" />
    <g id="Group" transform="translate(23 22.999878)">
      <g id="Oval-5-Copy">
        <path d="M0 119.5C0 53.502 53.4027 0 119.278 0C185.154 0 238.556 53.502 238.556 119.5C238.556 185.498 185.154 239 119.278 239C53.4027 239 0 185.498 0 119.5L0 119.5Z" id="path_1" fill="#E7E9ED" stroke="none" />
        <path d="M0 119.5C0 53.502 53.4027 0 119.278 0C185.154 0 238.556 53.502 238.556 119.5C238.556 185.498 185.154 239 119.278 239C53.4027 239 0 185.498 0 119.5L0 119.5Z" id="Group" fill="none" stroke="#349F4C" stroke-width="30" />
      </g>
      <path d="M167.54 58.0879L165.552 58.0879C154.011 58.0879 148.927 66.5929 144.595 66.5929C143.146 66.5929 142.422 65.6883 141.882 64.7836L139.534 60.6227C138.675 59.3744 137.257 58.6294 135.744 58.6298L133.205 58.6298C130.317 58.6298 129.056 61.1647 129.056 62.9742L129.056 181.002L168.248 181.002C181.074 181.002 188.848 171.409 188.848 161.995L188.848 78.5417C188.864 64.4209 178.922 58.0879 167.54 58.0879M175.493 157.118C175.493 163.638 170.612 168.887 163.925 168.887L142.422 168.887L142.422 80.714C142.422 75.8238 146.397 70.7581 152.363 70.7581L165.73 70.7581C171.698 70.7581 175.493 75.8278 175.493 80.714L175.493 157.118L175.493 157.118L175.493 157.118Z" id="Shape-Copy-2" fill="#272727" fill-rule="evenodd" stroke="none" />
      <path d="M94.6966 63.8874C94.0357 60.5141 91.0785 58.0849 87.6471 58.0963L80.2598 58.0963C76.8219 58.0754 73.8549 60.5072 73.1942 63.8874L47.8971 174.315C47.7496 174.845 47.6892 175.396 47.7183 175.945C47.7183 178.113 49.5243 179.564 51.5094 180.106L54.5804 180.831C57.4767 181.552 60.0027 179.927 60.5437 177.213L67.955 144.085L99.9391 144.085L107.343 177.213C107.884 179.927 110.414 181.552 113.31 180.831L116.381 180.106C118.367 179.564 120.172 178.113 120.172 175.945C120.201 175.396 120.141 174.845 119.994 174.315L94.6966 63.8874L94.6966 63.8874L94.6966 63.8874ZM70.843 131.945L79.3404 94.485C81.3255 85.7926 83.6766 69.8622 83.6766 69.8622L84.2132 69.8622C84.2132 69.8622 86.565 85.7926 88.5494 94.485L97.0475 131.957L70.843 131.945L70.843 131.945L70.843 131.945Z" id="Shape#2-Copy-2" fill="#272727" fill-rule="evenodd" stroke="none" />
    </g>
  </g>
</svg>