<?xml version="1.0" encoding="utf-8"?>
<svg width="299px" height="17px" viewBox="0 0 299 17" version="1.1" xmlns:xlink="http://www.w3.org/1999/xlink" xmlns="http://www.w3.org/2000/svg">
  <defs>
    <path d="M299 0L299 0L299 17L0 17L0 0L299 0Z" id="path_1" />
    <clipPath id="clip_1">
      <use xlink:href="#path_1" clip-rule="evenodd" fill-rule="evenodd" />
    </clipPath>
  </defs>
  <g id="aidock-slogen-dark" clip-path="url(#clip_1)">
    <path d="M299 0L299 0L299 17L0 17L0 0L299 0Z" id="aidock-slogen-dark" fill="#FFFFFF" fill-opacity="0" stroke="none" />
    <g id="Group-52-Copy">
      <path d="M7.64 11.9C7.64 11.12 7.43 10.52 7.01 10.11C6.59 9.68999 5.82 9.28999 4.72 8.89999C3.62 8.50999 2.77 8.09 2.19 7.66C1.61 7.23 1.17 6.73 0.879999 6.17999C0.589999 5.62999 0.439999 4.98999 0.439999 4.26999C0.439999 3.02999 0.849999 2.00999 1.68 1.20999C2.51 0.409988 3.59 0.00999451 4.93 0.00999451C5.85 0.00999451 6.66 0.219994 7.38 0.629997C8.1 1.04 8.65 1.61 9.03 2.34C9.42 3.07 9.61 3.87 9.61 4.75L7.63 4.75C7.63 3.78 7.4 3.03 6.93 2.5C6.46 1.97 5.79 1.71 4.92 1.71C4.13 1.71 3.51 1.93 3.07 2.38C2.63 2.82 2.41 3.45 2.41 4.25C2.41 4.91 2.65 5.46 3.12 5.9C3.59 6.34 4.32 6.74 5.31 7.09C6.85 7.60001 7.95 8.23 8.61 8.97C9.27 9.71 9.6 10.69 9.6 11.89C9.6 13.16 9.19 14.17 8.36 14.94C7.54 15.7 6.42 16.08 5 16.08C4.09 16.08 3.25 15.88 2.48 15.48C1.71 15.08 1.11 14.52 0.66 13.8C0.22 13.08 0 12.25 0 11.32L1.98 11.32C1.98 12.29 2.25 13.04 2.79 13.58C3.33 14.12 4.07 14.39 5 14.39C5.87 14.39 6.52 14.17 6.96 13.72C7.4 13.27 7.62 12.67 7.62 11.9L7.64 11.9ZM98.01 14.74C98.87 13.85 99.34 12.57 99.42 10.89L97.43 10.89C97.32 12.21 97.04 13.12 96.59 13.63C96.14 14.14 95.4 14.39 94.38 14.39C93.36 14.39 92.58 13.97 92.04 13.12C91.51 12.27 91.24 11.06 91.24 9.47998L91.24 6.60998C91.24 4.99998 91.53 3.77998 92.1 2.93998C92.67 2.10998 93.49 1.68998 94.56 1.68998C95.48 1.68998 96.17 1.95998 96.62 2.50998C97.07 3.04998 97.34 3.95998 97.43 5.23998L99.42 5.23998C99.35 3.55998 98.9 2.25998 98.07 1.35999C97.24 0.449982 96.07 -1.52588e-05 94.56 -1.52588e-05C92.92 -1.52588e-05 91.63 0.589981 90.68 1.76998C89.73 2.94998 89.26 4.55998 89.26 6.58998L89.26 9.42998C89.26 11.47 89.72 13.09 90.65 14.28C91.57 15.47 92.82 16.07 94.39 16.07C95.96 16.07 97.16 15.63 98.02 14.74L98.01 14.74ZM120.64 10.11C121.06 10.53 121.27 11.12 121.27 11.9C121.27 12.67 121.05 13.27 120.62 13.72C120.18 14.16 119.53 14.39 118.66 14.39C117.73 14.39 116.99 14.12 116.45 13.58C115.91 13.04 115.64 12.29 115.64 11.32L113.66 11.32C113.66 12.25 113.88 13.08 114.32 13.8C114.76 14.52 115.36 15.08 116.13 15.48C116.9 15.88 117.74 16.08 118.65 16.08C120.07 16.08 121.19 15.7 122.01 14.94C122.83 14.18 123.25 13.16 123.25 11.89C123.25 10.62 122.92 9.71 122.26 8.97C121.6 8.23 120.5 7.6 118.96 7.09C117.97 6.74001 117.24 6.34 116.77 5.9C116.3 5.46 116.06 4.9 116.06 4.25C116.06 3.45 116.28 2.82 116.72 2.38C117.16 1.93999 117.77 1.71 118.57 1.71C119.44 1.71 120.11 1.97 120.58 2.5C121.05 3.03 121.28 3.78 121.28 4.75L123.26 4.75C123.26 3.88 123.07 3.07 122.68 2.34C122.29 1.60999 121.74 1.03999 121.03 0.629997C120.31 0.219994 119.5 0.00999451 118.58 0.00999451C117.24 0.00999451 116.16 0.409996 115.33 1.20999C114.5 2.00999 114.09 3.02999 114.09 4.26999C114.09 4.98999 114.24 5.61999 114.52 6.17999C114.81 6.73999 115.25 7.23 115.83 7.66C116.41 8.09 117.26 8.50999 118.36 8.89999C119.46 9.28999 120.23 9.7 120.65 10.11L120.64 10.11ZM146.1 14.34C147.01 13.19 147.46 11.54 147.46 9.41L147.46 6.56C147.44 4.45 146.97 2.82999 146.05 1.7C145.13 0.559998 143.85 0 142.2 0C140.55 0 139.26 0.589996 138.33 1.78C137.41 2.97 136.94 4.6 136.94 6.69L136.94 9.63C136.98 11.68 137.46 13.26 138.4 14.38C139.33 15.5 140.61 16.06 142.22 16.06C143.83 16.06 145.19 15.48 146.1 14.33L146.1 14.34ZM173.32 10.11C173.74 10.53 173.95 11.12 173.95 11.9C173.95 12.68 173.73 13.27 173.3 13.72C172.86 14.16 172.21 14.39 171.34 14.39C170.41 14.39 169.67 14.12 169.13 13.58C168.59 13.04 168.32 12.29 168.32 11.32L166.34 11.32C166.34 12.25 166.56 13.08 167 13.8C167.44 14.52 168.05 15.08 168.82 15.48C169.59 15.88 170.43 16.08 171.34 16.08C172.76 16.08 173.88 15.7 174.7 14.94C175.52 14.18 175.94 13.16 175.94 11.89C175.94 10.62 175.61 9.71 174.95 8.97C174.29 8.23 173.19 7.6 171.65 7.09C170.66 6.74001 169.93 6.34 169.46 5.9C168.99 5.46 168.75 4.9 168.75 4.25C168.75 3.45 168.97 2.82 169.4 2.38C169.84 1.93999 170.45 1.71 171.25 1.71C172.12 1.71 172.79 1.97 173.26 2.5C173.73 3.03 173.96 3.78 173.96 4.75L175.94 4.75C175.94 3.88 175.75 3.07 175.36 2.34C174.97 1.60999 174.42 1.03999 173.71 0.629997C172.99 0.219994 172.18 0.00999451 171.26 0.00999451C169.92 0.00999451 168.84 0.409996 168.01 1.20999C167.18 2.00999 166.77 3.02999 166.77 4.26999C166.77 4.98999 166.91 5.61999 167.2 6.17999C167.49 6.73999 167.93 7.23 168.51 7.66C169.09 8.09 169.94 8.50999 171.04 8.89999C172.14 9.28999 172.91 9.7 173.33 10.11L173.32 10.11ZM193.36 10.89C193.27 12.57 192.8 13.85 191.95 14.74C191.09 15.63 189.89 16.07 188.32 16.07C186.75 16.07 185.51 15.47 184.58 14.28C183.66 13.09 183.19 11.47 183.19 9.43002L183.19 6.59002C183.19 4.56002 183.66 2.95002 184.61 1.77002C185.56 0.590019 186.85 2.28882e-05 188.49 2.28882e-05C190 2.28882e-05 191.17 0.45002 192 1.36002C192.83 2.27003 193.28 3.56002 193.35 5.24002L191.36 5.24002C191.27 3.97002 191.01 3.06002 190.55 2.51002C190.1 1.97002 189.41 1.69002 188.49 1.69002C187.42 1.69002 186.6 2.11002 186.03 2.94002C185.46 3.77002 185.17 5.00002 185.17 6.61002L185.17 9.48002C185.17 11.06 185.44 12.28 185.97 13.12C186.5 13.97 187.28 14.39 188.31 14.39C189.34 14.39 190.07 14.14 190.52 13.63C190.97 13.12 191.25 12.21 191.36 10.89L193.35 10.89L193.36 10.89ZM204.83 14.34C205.74 13.19 206.19 11.54 206.19 9.41L206.19 6.56C206.17 4.45 205.7 2.82999 204.78 1.7C203.86 0.559998 202.58 0 200.93 0C199.28 0 197.99 0.589996 197.06 1.78C196.14 2.97 195.67 4.6 195.68 6.69L195.68 9.63C195.72 11.68 196.2 13.26 197.14 14.38C198.07 15.5 199.35 16.06 200.96 16.06C202.57 16.06 203.93 15.48 204.84 14.33L204.83 14.34ZM14.25 15.85L12.28 15.85L12.28 0.209991L14.25 0.209991L14.25 15.85L14.25 15.85ZM24.32 12.97L20.24 0.209984L17.7 0.209984L17.7 15.85L19.67 15.85L19.67 9.75999L19.49 3.7L23.56 15.85L25.06 15.85L29.15 3.65999L28.97 9.75999L28.97 15.85L30.94 15.85L30.94 0.209991L28.4 0.209991L24.32 12.97L24.32 12.97ZM36.29 9.72999L36.29 15.85L34.32 15.85L34.32 0.209991L39.3 0.209991C40.75 0.209991 41.9 0.649994 42.73 1.51999C43.56 2.38999 43.98 3.54999 43.98 4.99999C43.98 6.45 43.58 7.66 42.79 8.48C42 9.28999 40.88 9.71 39.44 9.74L36.28 9.74L36.29 9.72999ZM54.63 14.17L48.5 14.17L48.5 0.219986L46.52 0.219986L46.52 15.86L54.63 15.86L54.63 14.17L54.63 14.17ZM59.02 15.86L57.05 15.86L57.05 0.219986L59.02 0.219986L59.02 15.86L59.02 15.86ZM64.43 8.94998L69.72 8.94998L69.72 7.25998L64.43 7.25998L64.43 1.90998L70.61 1.90998L70.61 0.209984L62.47 0.209984L62.47 15.85L64.44 15.85L64.44 8.93999L64.43 8.94998ZM77.11 8.06998L80.31 0.219986L82.53 0.219986L78.08 10.03L78.08 15.86L76.11 15.86L76.11 10.03L71.66 0.219986L73.89 0.219986L77.09 8.06998L77.11 8.06998ZM111.41 0.219986L111.41 11.34C111.4 12.82 110.97 13.98 110.12 14.82C109.27 15.66 108.1 16.08 106.59 16.08C105.08 16.08 103.86 15.67 103.05 14.85C102.23 14.03 101.82 12.86 101.8 11.34L101.8 0.219978L103.75 0.219978L103.75 11.26C103.75 12.31 103.97 13.1 104.42 13.62C104.87 14.14 105.59 14.4 106.58 14.4C107.57 14.4 108.31 14.14 108.76 13.62C109.21 13.1 109.43 12.31 109.43 11.26L109.43 0.219978L111.41 0.219978L111.41 0.219986ZM134.98 1.91998L130.87 1.91998L130.87 15.86L128.9 15.86L128.9 1.91998L124.8 1.91998L124.8 0.219986L134.98 0.219986L134.98 1.91998L134.98 1.91998ZM161.2 0.219986L163.74 0.219986L163.74 15.86L161.77 15.86L161.77 9.76999L161.95 3.66999L157.86 15.86L156.36 15.86L152.29 3.70998L152.47 9.76998L152.47 15.86L150.5 15.86L150.5 0.219986L153.04 0.219986L157.12 12.98L161.2 0.219978L161.2 0.219986ZM219.94 0.219986L222.48 0.219986L222.48 15.86L220.51 15.86L220.51 9.76999L220.69 3.66999L216.6 15.86L215.1 15.86L211.03 3.70998L211.21 9.76998L211.21 15.86L209.24 15.86L209.24 0.219986L211.77 0.219986L215.85 12.98L219.93 0.219978L219.94 0.219986ZM227.83 15.86L227.83 9.73998L230.99 9.73998C232.43 9.70998 233.55 9.28999 234.34 8.47998C235.13 7.66998 235.53 6.50998 235.53 4.99998C235.53 3.48998 235.11 2.39998 234.28 1.51997C233.45 0.649971 232.31 0.209976 230.85 0.209976L225.86 0.209976L225.86 15.85L227.83 15.85L227.83 15.86ZM240.03 14.17L246.16 14.17L246.16 15.86L238.05 15.86L238.05 0.219986L240.03 0.219986L240.03 14.17L240.03 14.17ZM250.47 8.62998L256 8.62998L256 6.93998L250.47 6.93998L250.47 1.90998L256.81 1.90998L256.81 0.209984L248.51 0.209984L248.51 15.85L256.92 15.85L256.92 14.16L250.48 14.16L250.48 8.61999L250.47 8.62998ZM263.82 6.20998L266.76 0.219986L269.07 0.219986L265 7.97999L269.16 15.86L266.83 15.86L263.82 9.75999L260.8 15.86L258.47 15.86L262.65 7.97999L258.56 0.219986L260.86 0.219986L263.82 6.20998L263.82 6.20998ZM271.63 15.86L273.6 15.86L273.6 0.219986L271.63 0.219986L271.63 15.86L271.63 15.86ZM286.18 1.91998L282.07 1.91998L282.07 15.86L280.1 15.86L280.1 1.91998L276 1.91998L276 0.219986L286.18 0.219986L286.18 1.91998L286.18 1.91998ZM295.76 0.219986L292.56 8.06998L289.36 0.219986L287.13 0.219986L291.58 10.03L291.58 15.86L293.55 15.86L293.55 10.03L298 0.219986L295.78 0.219986L295.76 0.219986ZM144.68 2.98998C145.22 3.79998 145.49 5.02998 145.49 6.67999L145.49 9.60999C145.47 11.21 145.19 12.39 144.66 13.17C144.13 13.94 143.31 14.33 142.21 14.33C141.11 14.33 140.28 13.91 139.72 13.07C139.16 12.23 138.89 11.01 138.89 9.41999L138.89 6.61999C138.89 5.02999 139.18 3.82999 139.73 3.00999C140.28 2.18999 141.1 1.78999 142.18 1.78999C143.3 1.78999 144.13 2.18999 144.67 2.99998L144.68 2.98998ZM203.42 2.98998C203.96 3.79998 204.23 5.02998 204.23 6.67999L204.23 9.60999C204.21 11.21 203.93 12.39 203.4 13.17C202.87 13.94 202.05 14.33 200.95 14.33C199.85 14.33 199.02 13.91 198.46 13.07C197.91 12.23 197.63 11.01 197.63 9.41999L197.63 6.61999C197.63 5.02999 197.92 3.82999 198.47 3.00999C199.02 2.18999 199.84 1.78999 200.92 1.78999C202.04 1.78999 202.87 2.18999 203.41 2.99998L203.42 2.98998ZM36.29 8.04998L39.31 8.04998C40.18 8.04998 40.85 7.78998 41.32 7.26998C41.79 6.74998 42.02 5.99998 42.02 5.01998C42.02 4.03998 41.78 3.32998 41.3 2.75998C40.82 2.18998 40.16 1.90998 39.32 1.90998L36.29 1.90998L36.29 8.03998L36.29 8.04998ZM230.84 8.04998L227.82 8.04998L227.82 1.91998L230.85 1.91998C231.69 1.91998 232.35 2.19998 232.83 2.76998C233.31 3.33998 233.55 4.08998 233.55 5.02998C233.55 5.96999 233.32 6.74998 232.85 7.27998C232.38 7.79998 231.71 8.05998 230.84 8.05998L230.84 8.04998Z" id="SIMPLIFY-CUSTOMS-COMPLEXITY" fill="#000000" fill-rule="evenodd" stroke="none" />
    </g>
  </g>
</svg>