<?xml version="1.0" encoding="UTF-8"?>
<svg width="165px" height="55px" viewBox="0 0 165 55" version="1.1" xmlns="http://www.w3.org/2000/svg" xmlns:xlink="http://www.w3.org/1999/xlink">
    <title>logo</title>
    <g id="Style-Guide" stroke="none" stroke-width="1" fill="none" fill-rule="evenodd">
        <g id="Style-Guide-" transform="translate(-639.000000, -10800.000000)" fill-rule="nonzero">
            <g id="fotter" transform="translate(0.000000, 10738.000000)">
                <g id="logo" transform="translate(639.176410, 62.000000)">
                    <path d="M66.8312337,0 L65.9533808,0 C60.8603978,0 58.6163975,3.74658285 56.7045093,3.74658285 C56.065418,3.74658285 55.7458724,3.3480484 55.5071107,2.94951395 L54.4712802,1.11661453 C54.0917827,0.56675517 53.4662581,0.238556119 52.7981536,0.238761628 L51.6779487,0.238761628 C50.4033565,0.238761628 49.8468445,1.35537616 49.8468445,2.15244506 L49.8468445,54.1450337 L67.1435985,54.1450337 C72.8038648,54.1450337 76.2345012,49.9191324 76.2345012,45.7722199 L76.2345012,9.01010987 C76.2416732,2.78974113 71.8542039,0 66.8312337,0 M70.3408501,43.6233652 C70.3408501,46.4956855 68.1866098,48.8079034 65.2353007,48.8079034 L55.7458724,48.8079034 L55.7458724,9.96695159 C55.7458724,7.81271133 57.499783,5.58127747 60.1333417,5.58127747 L66.0323696,5.58127747 C68.6659283,5.58127747 70.3408501,7.81450653 70.3408501,9.96695159 L70.3408501,43.6233652 Z" id="Shape" fill="#272727"></path>
                    <path d="M98.3352022,16.3470931 L91.3967534,16.3470931 C86.452772,16.3470931 82.2232803,20.255244 82.2232803,25.1184414 L82.2232803,45.2139126 C82.2232803,50.0789052 86.1332264,54.1450337 91.0772078,54.1450337 L98.6529527,54.1450337 C103.596934,54.1450337 107.50329,50.0789052 107.50329,45.2139126 L107.50329,25.1184414 C107.50329,20.255244 103.277388,16.3470931 98.3352022,16.3470931 M101.600671,44.4168437 C101.617768,45.5853177 101.161258,46.7109742 100.335103,47.5374676 C99.5089478,48.363961 98.3834782,48.8209314 97.2149973,48.804313 L92.4325839,48.804313 C90.0377868,48.804313 88.1240853,46.8888344 88.1240853,44.4168437 L88.1240853,26.0752831 C88.1207532,24.9111062 88.5817381,23.7936453 89.4049389,22.9704445 C90.2281397,22.1472437 91.3456006,21.6862588 92.5097775,21.6895909 L97.3029621,21.6895909 C99.695964,21.6895909 101.611443,23.6840764 101.611443,26.0752831 L101.600671,44.4168437 Z" id="Shape" fill="#272727"></path>
                    <path d="M133.10105,48.8025178 L124.649247,48.8025178 C121.696143,48.8025178 119.304936,47.6069145 119.304936,43.8585364 L119.304936,26.872352 C119.304936,23.9228381 120.741096,21.689609 124.568463,21.689609 L132.223197,21.689609 C133.578573,21.689609 134.617994,20.8135513 134.617994,19.4563799 L134.617994,18.5803222 C134.617994,17.2231509 133.578573,16.3470931 132.223197,16.3470931 L122.496802,16.3470931 C117.552821,16.3470931 113.402318,20.336028 113.402318,25.1992254 L113.402318,45.0595254 C113.402318,49.924518 117.233275,54.1522145 122.175461,54.1522145 L133.10105,54.1522145 C134.456426,54.1522145 135.492256,53.2743616 135.492256,51.9171902 L135.492256,51.0411325 C135.492256,49.6839611 134.456426,48.8079034 133.10105,48.8079034" id="Path" fill="#272727"></path>
                    <path d="M163.628429,17.4637077 L162.991133,16.8246164 C162.034291,15.8695699 160.68071,15.8695699 159.720278,16.8246164 L145.286869,31.2598213 L145.286869,2.63176351 C145.283935,1.31386867 144.218922,0.244848866 142.901048,0.236596335 L141.786228,0.236596335 C141.147849,0.225647477 140.532306,0.474378646 140.081002,0.92602106 C139.629698,1.37766347 139.381429,1.99339305 139.393226,2.63176351 L139.393226,51.753827 C139.381922,52.3918889 139.630409,53.0071485 140.081658,53.4583973 C140.532907,53.909646 141.148166,54.1581334 141.786228,54.1471984 L142.901048,54.1471984 C144.220328,54.141901 145.288316,53.0731108 145.292254,51.753827 L145.292254,39.0743279 L147.927608,36.4425643 L153.483753,44.9464278 C154.201833,46.0630423 155.873164,46.4615767 156.989779,45.6645078 L158.0292,44.9464278 C158.74728,44.4671093 159.06503,43.8298132 159.06503,43.190722 C159.046543,42.7010429 158.880047,42.2284712 158.587507,41.8353458 L152.146329,32.216663 L163.63561,20.6519833 C164.671441,19.6179479 164.671441,18.497743 163.63561,17.4637077" id="Path" fill="#272727"></path>
                    <path d="M20.7358778,2.78974113 C20.444198,1.30372598 19.1391577,0.233638069 17.6247958,0.23870163 L14.3647122,0.23870163 C12.8473994,0.229468579 11.5379851,1.30067046 11.2464494,2.78974113 L0.0820993184,51.4342813 C0.017004638,51.6677744 -0.00967337222,51.9103017 0.00311050899,52.1523614 C0.00311050899,53.1074079 0.800179404,53.7464992 1.67623711,53.9852608 L3.03161327,54.3048065 C4.30979582,54.6225569 5.42461516,53.906272 5.66337678,52.7106687 L8.93423157,38.1174861 L23.0498909,38.1174861 L26.3171552,52.7106687 C26.5559169,53.906272 27.6725314,54.6225569 28.950714,54.3048065 L30.3060901,53.9852608 C31.1821478,53.7464992 31.9792167,53.1074079 31.9792167,52.1523614 C31.9920006,51.9103017 31.9653226,51.6677744 31.9002279,51.4342813 L20.7358778,2.78974113 Z M10.2088237,32.7695847 L13.958997,16.2681043 C14.8350547,12.4389423 15.8726804,5.42150465 15.8726804,5.42150465 L16.1096468,5.42150465 C16.1096468,5.42150465 17.1472726,12.4389423 18.0233303,16.2681043 L21.7735035,32.7749703 L10.2088237,32.7695847 Z" id="Shape" fill="#9EA1A2"></path>
                    <path d="M39.9229777,10.4692053 L38.8063631,10.4692053 C38.1684688,10.4578097 37.5531956,10.70589 37.1018898,11.1568572 C36.650584,11.6078245 36.402042,12.2229113 36.4133613,12.8608143 L36.4133613,51.753827 C36.402042,52.39173 36.650584,53.0068168 37.1018898,53.4577841 C37.5531956,53.9087514 38.1684688,54.1568316 38.8063631,54.145436 L39.9229777,54.145436 C41.2419679,54.1410905 42.3102412,53.0728172 42.3141844,51.753827 L42.3141844,12.8608143 C42.3092624,11.5422315 41.2415605,10.4745296 39.9229777,10.4692053" id="Path" fill="#9EA1A2"></path>
                    <path d="M39.3610803,6.90434004 C37.5199363,6.90334751 36.028198,5.41000169 36.0291884,3.5688577 C36.0301807,1.72771372 37.5235264,0.235975234 39.3646704,0.236965441 C40.2488192,0.237442417 41.0965664,0.5891257 41.7214173,1.21464994 C42.3462682,1.84017418 42.6970382,2.68829968 42.696563,3.57244843 C42.6955703,5.41359241 41.2022243,6.90533061 39.3610803,6.90434004 Z" id="Path" fill="#93D500"></path>
                    <path d="M164.565524,51.0860125 C164.565524,52.9269231 163.073346,54.4193685 161.232435,54.4196988 C159.391524,54.420029 157.898811,52.9281192 157.89815,51.0872086 C157.89749,49.2462981 159.389131,47.753317 161.230042,47.7523257 C163.070776,47.7523257 164.563542,49.2434837 164.565524,51.0842173" id="Path" fill="#93D500"></path>
                    <path d="M155.576956,0.994540919 L154.031289,0.994540919 L154.031289,0 L158.127936,0 L158.127936,0.994540919 L156.612787,0.994540919 L156.612787,4.83088378 L155.571571,4.83088378 L155.576956,0.994540919 Z M159.057849,0 L160.572998,0 C161.402381,2.41633949 161.567539,2.93694755 161.662685,3.50423082 L161.686023,3.50423082 C161.781168,3.10210597 161.969664,2.43967709 162.845722,0 L164.314196,0 L164.673236,4.83088378 L163.655357,4.83088378 C163.438138,1.75211541 163.461476,1.30331536 163.438138,0.75757449 L163.4148,0.75757449 C163.27298,1.20816974 163.082688,1.94240663 162.111485,4.75907577 L161.093607,4.75907577 C160.196006,1.91906903 160.029053,1.23150735 159.933907,0.780912093 L159.885437,0.780912093 C159.862099,1.25484495 159.862099,1.84726102 159.673603,4.83088378 L158.698809,4.83088378 L159.057849,0 Z" id="Shape" fill="#272727"></path>
                </g>
            </g>
        </g>
    </g>
</svg>